<svg xmlns="http://www.w3.org/2000/svg" width="128" height="128" viewBox="0 0 128 128" role="img" aria-label="More aerial assets">
<defs>
  <style>
    .icon {
      fill: none;
      stroke: #080b0f;
      stroke-width: 2.4;
      stroke-linecap: round;
      stroke-linejoin: round;
    }
    .fill {
      fill: #080b0f;
      stroke: none;
    }
    .soft {
      fill: #f3f3f2;
      stroke: none;
    }
  </style>
</defs>

<g class="icon">
  <line x1="28" y1="30" x2="54" y2="30"/>
  <line x1="41" y1="18" x2="41" y2="43"/>
  <rect x="35" y="25" width="12" height="9" rx="1.5" class="fill"/>
  <ellipse cx="28" cy="20" rx="10" ry="2.2"/>
  <ellipse cx="54" cy="20" rx="10" ry="2.2"/>
  <ellipse cx="28" cy="40" rx="10" ry="2.2"/>
  <ellipse cx="54" cy="40" rx="10" ry="2.2"/>

  <line x1="74" y1="30" x2="100" y2="30"/>
  <line x1="87" y1="18" x2="87" y2="43"/>
  <rect x="81" y="25" width="12" height="9" rx="1.5" class="fill"/>
  <ellipse cx="74" cy="20" rx="10" ry="2.2"/>
  <ellipse cx="100" cy="20" rx="10" ry="2.2"/>
  <ellipse cx="74" cy="40" rx="10" ry="2.2"/>
  <ellipse cx="100" cy="40" rx="10" ry="2.2"/>

  <line x1="51" y1="78" x2="77" y2="78"/>
  <line x1="64" y1="66" x2="64" y2="91"/>
  <rect x="58" y="73" width="12" height="9" rx="1.5" class="fill"/>
  <ellipse cx="51" cy="68" rx="10" ry="2.2"/>
  <ellipse cx="77" cy="68" rx="10" ry="2.2"/>
  <ellipse cx="51" cy="88" rx="10" ry="2.2"/>
  <ellipse cx="77" cy="88" rx="10" ry="2.2"/>

  <path d="M47 48 L58 64"/>
  <path d="M81 48 L70 64"/>
</g>
</svg>